<?xml version="1.0" encoding="UTF-8"?>
<svg width="62px" height="81px" viewBox="0 0 62 81" version="1.1" xmlns="http://www.w3.org/2000/svg" xmlns:xlink="http://www.w3.org/1999/xlink">
    <!-- Generator: Sketch 61.2 (89653) - https://sketch.com -->
    <title>icon / checklist</title>
    <desc>Created with Sketch.</desc>
    <g id="Desktop-Prototype" stroke="none" stroke-width="1" fill="none" fill-rule="evenodd">
        <g id="A1-Landing-Page" transform="translate(-494.000000, -1400.000000)" fill="#0F2940" fill-rule="nonzero">
            <g id="section-/-introducing" transform="translate(314.000000, 1100.000000)">
                <g id="icon-/-checklist" transform="translate(180.000000, 300.000000)">
                    <path d="M4.037,0.038 C2.133,0.038 0.584,1.587 0.584,3.492 L0.584,76.584 C0.584,78.488 2.133,80.038 4.037,80.038 L57.963,80.038 C59.867,80.038 61.417,78.489 61.417,76.584 L61.417,3.492 C61.417,1.587 59.867,0.038 57.963,0.038 L4.037,0.038 Z M19.764,13.371 L42.238,13.371 C44.726,13.371 46.751,11.347 46.751,8.858 L46.751,7.551 L53.501,7.551 L53.501,71.857 L8.501,71.857 L8.501,7.551 L15.251,7.551 L15.251,8.858 C15.25,11.347 17.274,13.371 19.764,13.371 Z M44.75,8.858 C44.75,10.244 43.623,11.371 42.237,11.371 L19.764,11.371 C18.378,11.371 17.25,10.244 17.25,8.858 L17.25,7.551 L44.75,7.551 L44.75,8.858 Z M17.25,5.551 L17.25,2.037 L44.75,2.037 L44.75,5.551 L17.25,5.551 Z M59.417,3.492 L59.417,76.584 C59.417,77.386 58.765,78.038 57.963,78.038 L4.037,78.038 C3.236,78.038 2.584,77.386 2.584,76.584 L2.584,3.492 C2.584,2.69 3.236,2.038 4.037,2.038 L15.25,2.038 L15.25,5.552 L7.5,5.552 C6.947,5.552 6.5,6 6.5,6.552 L6.5,72.858 C6.5,73.41 6.947,73.858 7.5,73.858 L54.5,73.858 C55.053,73.858 55.5,73.41 55.5,72.858 L55.5,6.551 C55.5,5.999 55.053,5.551 54.5,5.551 L46.75,5.551 L46.75,2.037 L57.963,2.037 C58.765,2.038 59.417,2.69 59.417,3.492 Z" id="Shape"></path>
                    <path d="M13.562,24.478 C13.562,26.768 15.424,28.63 17.713,28.63 C20.002,28.63 21.864,26.768 21.864,24.478 C21.864,22.189 20.002,20.327 17.713,20.327 C15.424,20.327 13.562,22.189 13.562,24.478 Z M17.713,22.327 C18.9,22.327 19.864,23.292 19.864,24.478 C19.864,25.665 18.899,26.63 17.713,26.63 C16.527,26.63 15.562,25.665 15.562,24.478 C15.562,23.292 16.526,22.327 17.713,22.327 Z" id="Shape"></path>
                    <path d="M37.626,25.478 L47.105,25.478 C47.658,25.478 48.105,25.03 48.105,24.478 C48.105,23.926 47.658,23.478 47.105,23.478 L37.626,23.478 C37.073,23.478 36.626,23.926 36.626,24.478 C36.626,25.03 37.073,25.478 37.626,25.478 Z" id="Path"></path>
                    <path d="M17.713,31.811 C15.424,31.811 13.562,33.673 13.562,35.962 C13.562,38.251 15.424,40.113 17.713,40.113 C20.002,40.113 21.864,38.251 21.864,35.962 C21.864,33.673 20.002,31.811 17.713,31.811 Z M17.713,38.114 C16.526,38.114 15.562,37.149 15.562,35.963 C15.562,34.777 16.527,33.812 17.713,33.812 C18.899,33.812 19.864,34.777 19.864,35.963 C19.864,37.149 18.899,38.114 17.713,38.114 Z" id="Shape"></path>
                    <path d="M37.626,36.962 L47.105,36.962 C47.658,36.962 48.105,36.514 48.105,35.962 C48.105,35.41 47.658,34.962 47.105,34.962 L37.626,34.962 C37.073,34.962 36.626,35.41 36.626,35.962 C36.626,36.514 37.073,36.962 37.626,36.962 Z" id="Path"></path>
                    <path d="M17.713,43.295 C15.424,43.295 13.562,45.157 13.562,47.446 C13.562,49.736 15.424,51.598 17.713,51.598 C20.002,51.598 21.864,49.736 21.864,47.446 C21.864,45.157 20.002,43.295 17.713,43.295 Z M17.713,49.598 C16.526,49.598 15.562,48.633 15.562,47.446 C15.562,46.26 16.527,45.295 17.713,45.295 C18.899,45.295 19.864,46.26 19.864,47.446 C19.864,48.633 18.899,49.598 17.713,49.598 Z" id="Shape"></path>
                    <path d="M37.626,48.446 L47.105,48.446 C47.658,48.446 48.105,47.998 48.105,47.446 C48.105,46.894 47.658,46.446 47.105,46.446 L37.626,46.446 C37.073,46.446 36.626,46.894 36.626,47.446 C36.626,47.998 37.073,48.446 37.626,48.446 Z" id="Path"></path>
                    <path d="M17.713,54.779 C15.424,54.779 13.562,56.641 13.562,58.93 C13.562,61.219 15.424,63.081 17.713,63.081 C20.002,63.081 21.864,61.219 21.864,58.93 C21.864,56.641 20.002,54.779 17.713,54.779 Z M17.713,61.082 C16.526,61.082 15.562,60.117 15.562,58.931 C15.562,57.745 16.527,56.78 17.713,56.78 C18.899,56.78 19.864,57.745 19.864,58.931 C19.864,60.117 18.899,61.082 17.713,61.082 Z" id="Shape"></path>
                    <path d="M29.356,28.63 C31.645,28.63 33.507,26.768 33.507,24.478 C33.507,22.189 31.645,20.327 29.356,20.327 C27.067,20.327 25.205,22.189 25.205,24.478 C25.205,26.768 27.067,28.63 29.356,28.63 Z M29.356,22.327 C30.543,22.327 31.507,23.292 31.507,24.478 C31.507,25.665 30.542,26.63 29.356,26.63 C28.17,26.63 27.205,25.665 27.205,24.478 C27.205,23.292 28.17,22.327 29.356,22.327 Z" id="Shape"></path>
                    <path d="M29.356,40.114 C31.645,40.114 33.507,38.252 33.507,35.963 C33.507,33.674 31.645,31.812 29.356,31.812 C27.067,31.812 25.205,33.674 25.205,35.963 C25.205,38.252 27.067,40.114 29.356,40.114 Z M29.356,33.811 C30.543,33.811 31.507,34.776 31.507,35.962 C31.507,37.148 30.542,38.113 29.356,38.113 C28.17,38.113 27.205,37.148 27.205,35.962 C27.205,34.776 28.17,33.811 29.356,33.811 Z" id="Shape"></path>
                    <path d="M29.356,51.598 C31.645,51.598 33.507,49.736 33.507,47.446 C33.507,45.157 31.645,43.295 29.356,43.295 C27.067,43.295 25.205,45.157 25.205,47.446 C25.205,49.736 27.067,51.598 29.356,51.598 Z M29.356,45.295 C30.543,45.295 31.507,46.26 31.507,47.446 C31.507,48.633 30.542,49.598 29.356,49.598 C28.17,49.598 27.205,48.633 27.205,47.446 C27.205,46.26 28.17,45.295 29.356,45.295 Z" id="Shape"></path>
                    <path d="M29.356,63.082 C31.645,63.082 33.507,61.22 33.507,58.931 C33.507,56.642 31.645,54.78 29.356,54.78 C27.067,54.78 25.205,56.642 25.205,58.931 C25.205,61.22 27.067,63.082 29.356,63.082 Z M29.356,56.779 C30.543,56.779 31.507,57.744 31.507,58.93 C31.507,60.116 30.542,61.081 29.356,61.081 C28.17,61.081 27.205,60.116 27.205,58.93 C27.205,57.744 28.17,56.779 29.356,56.779 Z" id="Shape"></path>
                    <path d="M37.626,59.931 L47.105,59.931 C47.658,59.931 48.105,59.483 48.105,58.931 C48.105,58.379 47.658,57.931 47.105,57.931 L37.626,57.931 C37.073,57.931 36.626,58.379 36.626,58.931 C36.626,59.483 37.073,59.931 37.626,59.931 Z" id="Path"></path>
                </g>
            </g>
        </g>
    </g>
</svg>