<?xml version="1.0" encoding="UTF-8"?>
<svg width="83px" height="81px" viewBox="0 0 83 81" version="1.1" xmlns="http://www.w3.org/2000/svg" xmlns:xlink="http://www.w3.org/1999/xlink">
    <!-- Generator: Sketch 61.2 (89653) - https://sketch.com -->
    <title>icon / computer</title>
    <desc>Created with Sketch.</desc>
    <g id="Desktop-Prototype" stroke="none" stroke-width="1" fill="none" fill-rule="evenodd">
        <g id="A1-Landing-Page" transform="translate(-656.000000, -1400.000000)" fill="#0F2940" fill-rule="nonzero">
            <g id="section-/-introducing" transform="translate(314.000000, 1100.000000)">
                <g id="icon-/-computer" transform="translate(342.000000, 300.000000)">
                    <g id="Group">
                        <path d="M76.4382074,9.58247777 L76.4382074,2.00251856 C76.4382074,1.41394048 75.9617513,0.936729083 75.3741048,0.936729083 L7.62589518,0.936729083 C7.03824868,0.936729083 6.56179261,1.41394048 6.56179261,2.00251856 L6.56179261,9.58247777 C3.20016641,9.80846362 0.532051282,12.6119506 0.532051282,16.0352398 L0.532051282,50.8446109 L0.532051282,58.5060136 C0.532051282,62.0765125 3.43235423,64.9814132 6.99720178,64.9814132 L30.5228052,64.9814132 L30.5228052,71.7237807 L23.7375927,75.6814608 C22.8085812,76.2237229 22.3726526,77.2858695 22.6527068,78.3256387 C22.9332807,79.3648875 23.8435872,80.063271 24.9186009,80.063271 L58.081399,80.063271 C59.1564127,80.063271 60.0667193,79.3648875 60.3472931,78.3256387 C60.6273474,77.2858695 60.1914187,76.2237228 59.2624072,75.6814608 L52.4771947,71.7237807 L52.4771947,64.9814132 L76.0027981,64.9814132 C79.5676457,64.9814132 82.4679486,62.0765125 82.4679486,58.5060136 L82.4679486,50.8446109 L82.4679486,16.0352398 C82.4679486,12.6119506 79.7998336,9.80846362 76.4382074,9.58247777 Z M80.3397436,16.0352398 L80.3397436,49.7788215 L76.4382074,49.7788215 L76.4382074,11.7360439 C78.6230469,11.9583868 80.3397436,13.789627 80.3397436,16.0352398 Z M8.68999774,11.6919395 L74.3100023,11.6919395 L74.3100023,49.7788214 L8.68999774,49.7788214 L8.68999774,11.6919395 Z M8.68999774,3.06830803 L74.3100023,3.06830803 L74.3100023,9.56036062 L8.68999774,9.56036062 L8.68999774,3.06830803 Z M6.56179261,11.7360439 L6.56179261,49.7788215 L2.66025641,49.7788215 L2.66025641,16.0352398 C2.66025641,13.789627 4.37695318,11.9583868 6.56179261,11.7360439 Z M50.8773998,73.2574142 L58.1910307,77.5236945 C58.2346755,77.548674 58.3359939,77.6080002 58.292349,77.7698461 C58.2487041,77.9316921 58.1312788,77.9316921 58.081399,77.9316921 L24.918601,77.9316921 C24.8687212,77.9316921 24.7512958,77.9316921 24.707651,77.7698461 C24.6640062,77.6080001 24.7653245,77.548674 24.8089693,77.5236945 L32.1225921,73.2574142 C32.4499324,73.0664256 32.6510103,72.7156726 32.6510103,72.3362973 L32.6510103,64.9814132 L50.3489897,64.9814132 L50.3489897,72.3362973 C50.3489897,72.7156726 50.5500676,73.0664255 50.8773998,73.2574142 Z M80.3397436,58.5060136 C80.3397436,60.9014379 78.3944311,62.8498343 76.0027982,62.8498343 L51.4130922,62.8498343 L31.5869078,62.8498343 L6.99720178,62.8498343 C4.60556891,62.8498343 2.66025641,60.9014379 2.66025641,58.5060136 L2.66025641,51.9104004 L7.62589518,51.9104004 L75.3741048,51.9104004 L80.3397436,51.9104004 L80.3397436,58.5060136 Z" id="Shape"></path>
                        <path d="M44.8881898,54.8689029 L38.1118102,54.8689029 C36.7292043,54.8689029 35.6048303,55.9950593 35.6048303,57.3798571 C35.6048303,58.7646548 36.7292043,59.8913317 38.1118102,59.8913317 L44.8881899,59.8913317 C46.2707958,59.8913317 47.3951698,58.7646548 47.3951698,57.3798571 C47.3951698,55.9950593 46.2707957,54.8689029 44.8881898,54.8689029 Z M44.8881898,57.7597527 L38.1118102,57.7597527 C37.9029384,57.7597527 37.7330354,57.5895803 37.7330354,57.3798571 C37.7330354,57.1706542 37.9029386,57.0004819 38.1118102,57.0004819 L44.8881899,57.0004819 C45.0970617,57.0004819 45.2669647,57.1706543 45.2669647,57.3798571 C45.2669647,57.5895804 45.0970616,57.7597527 44.8881898,57.7597527 Z" id="Shape"></path>
                        <path d="M39.3717949,28.7903667 L36.1255806,28.7903667 C35.5844367,22.6772341 30.449934,17.8660246 24.2083333,17.8660246 C23.5812637,17.8660246 22.9606237,17.9278877 22.3461538,18.023317 L22.3461538,16.4375129 C22.3461538,15.8489348 21.8696978,15.3717234 21.2820513,15.3717234 C18.482547,15.3717234 15.7843612,16.3896356 13.6868114,18.2360326 C11.1897035,20.4206929 9.75773741,23.5878778 9.75773741,26.9252352 C9.75773741,27.5138132 10.2341935,27.9910246 10.82184,27.9910246 L12.4049393,27.9910246 C12.3094013,28.6066637 12.2475711,29.2282876 12.2475711,29.8561562 C12.2475711,32.7714651 13.3059582,35.5769686 15.2242525,37.7517411 C17.2541269,40.0777564 20.0964966,41.5049021 23.1442308,41.7780497 L23.1442308,45.0327277 C23.1442308,45.6213058 23.6206868,46.0985172 24.2083333,46.0985172 C28.8866437,46.0985172 33.3321815,44.0819478 36.4034267,40.5676527 C39.0039313,37.6101909 40.4358974,33.8060303 40.4358974,29.8561562 C40.4358974,29.2675781 39.9594414,28.7903667 39.3717949,28.7903667 Z M15.0891614,19.8394004 C16.5325584,18.5685714 18.3235552,17.7796374 20.2179487,17.5636693 L20.2179487,19.3257607 L20.2179487,25.8594457 L13.7055163,25.8594457 L11.9456943,25.8594457 C12.208083,23.5373985 13.3205066,21.3865646 15.0891614,19.8394004 Z M16.8230043,36.3445659 C15.2450357,34.5554135 14.3757762,32.2510601 14.3757762,29.8561562 C14.3757762,29.2275069 14.4344889,28.6025006 14.5498359,27.9910246 L21.2820513,27.9910246 C21.8696978,27.9910246 22.3461538,27.5138132 22.3461538,26.9252352 L22.3461538,20.1719392 C22.9566619,20.0558889 23.5801595,19.9976036 24.2083333,19.9976036 C29.2763296,19.9976036 33.4620769,23.8538048 33.9941281,28.7903667 L24.2083333,28.7903667 C23.6206868,28.7903667 23.1442308,29.2675781 23.1442308,29.8561562 L23.1442308,39.6460154 C20.711551,39.3806088 18.4518917,38.2112588 16.8230043,36.3445659 Z M34.8041554,39.1615183 C32.3693973,41.9477667 28.9411997,43.6494911 25.2724359,43.926867 L25.2724359,40.7695698 L25.2724359,30.9219457 L35.1153846,30.9219457 L38.2676845,30.9219457 C38.0380296,33.966315 36.8289639,36.8582057 34.8041554,39.1615183 Z" id="Shape"></path>
                        <path d="M25.5384615,5.24828458 L24.474359,5.24828458 C23.8867125,5.24828458 23.4102564,5.72549598 23.4102564,6.31407406 C23.4102564,6.90265214 23.8867125,7.37986353 24.474359,7.37986353 L25.5384615,7.37986353 C26.126108,7.37986353 26.6025641,6.90265214 26.6025641,6.31407406 C26.6025641,5.72549598 26.126108,5.24828458 25.5384615,5.24828458 Z" id="Path"></path>
                        <path d="M19.1538462,5.24828458 L18.0897436,5.24828458 C17.5020971,5.24828458 17.025641,5.72549598 17.025641,6.31407406 C17.025641,6.90265214 17.5020971,7.37986353 18.0897436,7.37986353 L19.1538462,7.37986353 C19.7414926,7.37986353 20.2179487,6.90265214 20.2179487,6.31407406 C20.2179487,5.72549598 19.7414926,5.24828458 19.1538462,5.24828458 Z" id="Path"></path>
                        <path d="M12.7692308,5.24828458 L11.7051282,5.24828458 C11.1174817,5.24828458 10.6410256,5.72549598 10.6410256,6.31407406 C10.6410256,6.90265214 11.1174817,7.37986353 11.7051282,7.37986353 L12.7692308,7.37986353 C13.3568773,7.37986353 13.8333333,6.90265214 13.8333333,6.31407406 C13.8333333,5.72549598 13.3568773,5.24828458 12.7692308,5.24828458 Z" id="Path"></path>
                        <path d="M66.5916216,21.8179803 C65.6118861,21.8179803 64.7080094,22.2160251 64.0516482,22.8970401 L59.944098,20.8593292 C59.9712462,20.6824565 60.0048891,20.5064296 60.0048891,20.3259792 C60.0048891,18.3749808 58.420166,16.7877455 56.471736,16.7877455 C54.529541,16.7877455 52.9494942,18.3749808 52.9494942,20.3259792 C52.9494942,20.505714 52.9833969,20.6815459 53.0105449,20.8582234 L48.8900051,22.8986663 C48.2334492,22.2248069 47.3221035,21.8179802 46.3627615,21.8179802 C44.4148511,21.8179802 42.8301281,23.4005319 42.8301281,25.3458058 C42.8301281,27.2973246 44.4148511,28.8845599 46.3627615,28.8845599 C48.3049565,28.8845599 49.8850034,27.2973246 49.8850034,25.3458058 C49.8850034,25.166201 49.8511007,24.9906293 49.8240824,24.8142771 L53.9400759,22.7761109 C54.5927999,23.4545889 55.4947931,23.8538046 56.4717359,23.8538046 C57.4515364,23.8538046 58.3550884,23.45602 59.0115144,22.7752002 L63.1192594,24.8129761 C63.0921113,24.9897186 63.0584684,25.1655504 63.0584684,25.3458058 C63.0584684,27.2973246 64.6431915,28.8845599 66.5916215,28.8845599 C68.5338165,28.8845599 70.1138633,27.2973246 70.1138633,25.3458058 C70.1138633,23.400532 68.5338166,21.8179803 66.5916216,21.8179803 Z M46.3627616,26.7529811 C45.5885854,26.7529811 44.9583333,26.1217298 44.9583333,25.3458059 C44.9583333,24.5761269 45.5885855,23.9495593 46.3627616,23.9495593 C46.8875388,23.9495593 47.3785431,24.2539962 47.6076785,24.7119526 C47.706399,24.9169921 47.7567984,25.1303582 47.7567984,25.3458059 C47.7567984,26.1217298 47.1312225,26.7529811 46.3627616,26.7529811 Z M56.471736,21.7222258 C55.9386455,21.7222258 55.4595916,21.4250746 55.2273387,20.9603528 C55.1280987,20.7547929 55.0776993,20.5414268 55.0776993,20.3259792 C55.0776993,19.5505757 55.7032752,18.9193244 56.471736,18.9193244 C57.2464317,18.9193244 57.8766839,19.5505758 57.8766839,20.3259792 C57.8766839,20.5414268 57.8262845,20.754793 57.7332795,20.9473427 C57.4947917,21.4250746 57.011581,21.7222258 56.471736,21.7222258 Z M66.5916216,26.7529811 C65.8169259,26.7529811 65.1866737,26.1217298 65.1866737,25.3458059 C65.1866737,25.1308786 65.2370731,24.9175126 65.3300781,24.7244423 C65.5685659,24.2467105 66.0517766,23.9495593 66.5916216,23.9495593 C67.3600824,23.9495593 67.9856583,24.5761269 67.9856583,25.3458059 C67.9856583,26.1217298 67.3600824,26.7529811 66.5916216,26.7529811 Z" id="Shape"></path>
                        <path d="M66.5916216,32.5862009 C64.6431916,32.5862009 63.0584685,34.1734362 63.0584685,36.1244346 C63.0584685,36.3044947 63.0924362,36.4806518 63.1196492,36.6575895 L59.013398,38.6946498 C58.3591151,38.0161718 57.4535499,37.6169561 56.471736,37.6169561 C55.4968715,37.6169561 54.5967619,38.0147407 53.9419594,38.6955605 L49.8244073,36.6566787 C49.8513606,36.4801964 49.8850035,36.3046247 49.8850035,36.1244346 C49.8850035,34.1734362 48.3049566,32.5862009 46.3627616,32.5862009 C44.4148512,32.5862009 42.8301282,34.1734362 42.8301282,36.1244346 C42.8301282,38.0697085 44.4148512,39.6522602 46.3627616,39.6522602 C47.3200902,39.6522602 48.2290328,39.2469297 48.8877321,38.5709886 L53.0101554,40.6123423 C52.9831372,40.7888897 52.9494943,40.9645915 52.9494943,41.1447817 C52.9494943,43.0957801 54.5295411,44.6830154 56.4717361,44.6830154 C58.4201661,44.6830154 60.0048892,43.0957801 60.0048892,41.1447817 C60.0048892,40.9647216 59.9709215,40.7885645 59.9437085,40.6116268 L64.0499597,38.5745665 C64.7042425,39.2530445 65.6098078,39.6522602 66.5916217,39.6522602 C68.5338167,39.6522602 70.1138635,38.0697085 70.1138635,36.1244346 C70.1138635,34.1734362 68.5338166,32.5862009 66.5916216,32.5862009 Z M46.3627616,37.5206812 C45.5885854,37.5206812 44.9583333,36.8941136 44.9583333,36.1244346 C44.9583333,35.3490311 45.5885855,34.7177798 46.3627616,34.7177798 C47.1312225,34.7177798 47.7567984,35.3490312 47.7567984,36.1244346 C47.7567984,36.3404026 47.706399,36.5537687 47.614433,36.7452777 C47.3790627,37.2162443 46.8875388,37.5206812 46.3627616,37.5206812 Z M56.471736,42.5514366 C55.7032752,42.5514366 55.0776993,41.9201853 55.0776993,41.1447818 C55.0776993,40.9293342 55.1280987,40.7159681 55.2211037,40.5234183 C55.4595916,40.0456865 55.9386455,39.7485352 56.471736,39.7485352 C57.011581,39.7485352 57.4947917,40.0456865 57.7270445,40.5104082 C57.8262845,40.7159682 57.8766839,40.9293342 57.8766839,41.1447818 C57.8766839,41.9201853 57.2464318,42.5514366 56.471736,42.5514366 Z M66.5916216,37.5206812 C66.0517766,37.5206812 65.5685659,37.22353 65.3363131,36.7588082 C65.2370731,36.5532482 65.1866737,36.3398822 65.1866737,36.1244346 C65.1866737,35.3490311 65.8169259,34.7177798 66.5916216,34.7177798 C67.3600824,34.7177798 67.9856583,35.3490312 67.9856583,36.1244346 C67.9856583,36.8941136 67.3600824,37.5206812 66.5916216,37.5206812 Z" id="Shape"></path>
                    </g>
                </g>
            </g>
        </g>
    </g>
</svg>