<?xml version="1.0" encoding="UTF-8"?>
<svg width="82px" height="81px" viewBox="0 0 82 81" version="1.1" xmlns="http://www.w3.org/2000/svg" xmlns:xlink="http://www.w3.org/1999/xlink">
    <!-- Generator: Sketch 61.2 (89653) - https://sketch.com -->
    <title>icon / construction</title>
    <desc>Created with Sketch.</desc>
    <g id="Desktop-Prototype" stroke="none" stroke-width="1" fill="none" fill-rule="evenodd">
        <g id="A1-Landing-Page" transform="translate(-1045.000000, -1400.000000)" fill="#0F2940" fill-rule="nonzero">
            <g id="section-/-introducing" transform="translate(314.000000, 1100.000000)">
                <g id="icon-/-construction" transform="translate(731.000000, 300.000000)">
                    <path d="M39.155,50.719 C39.155,51.271 39.602,51.719 40.155,51.719 L63.626,51.719 C64.179,51.719 64.626,51.271 64.626,50.719 L64.626,31.007 C64.626,30.455 64.179,30.007 63.626,30.007 L51.673,30.007 C44.771,30.007 39.155,35.622 39.155,42.525 L39.155,50.719 Z M41.155,42.525 C41.155,36.726 45.873,32.007 51.673,32.007 L62.626,32.007 L62.626,49.718 L41.155,49.718 L41.155,42.525 Z" id="Shape"></path>
                    <path d="M5.854,54.458 C8.549,54.458 10.742,52.266 10.742,49.57 C10.742,49.018 10.295,48.57 9.742,48.57 C9.189,48.57 8.742,49.018 8.742,49.57 C8.742,51.162 7.446,52.458 5.854,52.458 C5.023,52.458 4.223,52.112 3.659,51.509 C3.166,50.982 2.919,50.317 2.965,49.636 C3.047,48.395 3.698,47.742 4.523,46.916 C5.488,45.949 6.657,44.748 6.822,42.475 L8.302,42.475 C8.855,42.475 9.302,42.027 9.302,41.475 C9.302,40.923 8.855,40.475 8.302,40.475 L6.855,40.475 L6.85,13.287 L32.083,41.902 C32.071,42.184 32.04,42.461 32.04,42.746 L32.04,55.402 L24.092,55.402 C23.539,55.402 23.092,55.85 23.092,56.402 L23.092,62.714 C18.744,63.186 15.347,66.878 15.347,71.349 C15.347,76.14 19.245,80.038 24.036,80.038 L72.353,80.038 C77.144,80.038 81.042,76.14 81.042,71.349 C81.042,67.135 78.024,63.614 74.037,62.827 L74.037,56.402 C74.037,55.85 73.59,55.402 73.037,55.402 L71.741,55.402 L71.741,24.244 C71.741,23.692 71.294,23.244 70.741,23.244 L51.541,23.244 C48.929,23.244 46.44,23.769 44.161,24.704 L8.784,1.034 C8.769,1.024 8.751,1.023 8.736,1.014 C7.928,0.409 6.935,0.037 5.85,0.037 C3.178,0.037 1.005,2.21 1.005,4.882 C1.005,6.283 1.612,7.536 2.566,8.422 C2.571,8.427 2.572,8.435 2.576,8.44 L4.849,11.018 L4.853,40.475 L3.398,40.475 C2.845,40.475 2.398,40.923 2.398,41.475 C2.398,42.027 2.845,42.475 3.398,42.475 L4.823,42.475 C4.683,43.91 3.979,44.627 3.105,45.503 C2.165,46.445 1.099,47.513 0.967,49.503 C0.885,50.741 1.321,51.939 2.197,52.875 C3.139,53.881 4.472,54.458 5.854,54.458 Z M17.347,71.349 C17.347,67.661 20.348,64.66 24.036,64.66 C27.724,64.66 30.724,67.66 30.724,71.349 C30.724,75.038 27.724,78.038 24.036,78.038 C20.348,78.038 17.347,75.037 17.347,71.349 Z M29.574,78.038 C31.497,76.443 32.724,74.037 32.724,71.349 C32.724,68.661 31.497,66.255 29.574,64.66 L66.815,64.66 C64.892,66.255 63.665,68.661 63.665,71.349 C63.665,74.037 64.892,76.443 66.815,78.038 L29.574,78.038 L29.574,78.038 Z M79.042,71.349 C79.042,74.807 76.405,77.66 73.037,78.003 C72.812,78.026 72.584,78.038 72.354,78.038 C68.666,78.038 65.666,75.038 65.666,71.349 C65.666,67.66 68.666,64.66 72.354,64.66 C72.584,64.66 72.812,64.672 73.037,64.695 C76.405,65.037 79.042,67.891 79.042,71.349 Z M72.038,62.66 L25.092,62.66 L25.092,57.402 L72.038,57.402 L72.038,62.66 Z M69.742,25.244 L69.742,55.401 L34.04,55.401 L34.04,42.746 C34.04,33.096 41.891,25.245 51.541,25.245 L69.742,25.245 L69.742,25.244 Z M32.377,39.211 L6.334,9.678 C8.775,9.431 10.693,7.388 10.693,4.883 C10.693,4.823 10.677,4.766 10.675,4.706 L42.071,25.712 C37.082,28.497 33.446,33.407 32.377,39.211 Z M5.85,2.038 C7.418,2.038 8.694,3.314 8.694,4.883 C8.694,6.452 7.419,7.727 5.85,7.727 C4.281,7.727 3.005,6.451 3.005,4.883 C3.005,3.315 4.281,2.038 5.85,2.038 Z" id="Shape"></path>
                </g>
            </g>
        </g>
    </g>
</svg>