<?xml version="1.0" encoding="UTF-8"?>
<svg width="106px" height="81px" viewBox="0 0 106 81" version="1.1" xmlns="http://www.w3.org/2000/svg" xmlns:xlink="http://www.w3.org/1999/xlink">
    <!-- Generator: Sketch 61.2 (89653) - https://sketch.com -->
    <title>icon / handshake</title>
    <desc>Created with Sketch.</desc>
    <g id="Desktop-Prototype" stroke="none" stroke-width="1" fill="none" fill-rule="evenodd">
        <g id="A1-Landing-Page" transform="translate(-839.000000, -1400.000000)" fill="#0F2940" fill-rule="nonzero" stroke="#0F2940" stroke-width="0.75">
            <g id="section-/-introducing" transform="translate(314.000000, 1100.000000)">
                <g id="icon-/-handshake" transform="translate(525.000000, 300.000000)">
                    <path d="M73.4132813,7.08646831 C72.4582417,8.03783655 72.1671041,9.3907313 72.5079508,10.6026188 C71.9894022,10.7304065 71.4784016,10.8832359 70.9927409,11.0879757 L52.757493,18.6389507 C52.7004516,18.6018719 52.6493407,18.5576996 52.5824868,18.5338401 L34.4620768,12.1025391 C34.119289,11.9578779 33.7667968,11.8358938 33.4094522,11.7294936 C33.8836832,10.4518315 33.6151896,8.95954171 32.5867188,7.93509052 L27.0745117,2.44011127 C25.7098308,1.07990838 23.3306966,1.08334753 21.9694662,2.44011127 L1.94091795,22.4046578 C0.533105447,23.8069909 0.533105447,26.0897587 1.94091795,27.492092 L7.453125,32.9862114 C8.13460289,33.6654531 9.04036458,34.0403257 10.0047851,34.0403257 C10.4983174,34.0403257 10.9752441,33.9392993 11.4158325,33.7524003 C11.1520833,37.4695289 11.8374431,41.1837557 13.4311524,44.5866275 L13.7542074,45.2636121 C12.8796081,46.3295487 12.3804688,47.6364441 12.3804688,49.0317913 C12.3804688,50.6327381 13.005013,52.1382473 14.1419596,53.2706033 C15.27028,54.3960811 16.7688843,55.015889 18.3658284,55.0235198 L17.5976561,55.7889564 C16.4624348,56.9204526 15.8361652,58.4259617 15.8361652,60.0269086 C15.8361652,61.6278555 16.4624348,63.1333646 17.5976561,64.2648608 C18.7346027,65.3972169 20.2442056,66.0205716 21.8504231,66.0205716 C22.3492389,66.0205716 22.8317728,65.9406101 23.3034158,65.8241073 C22.8227151,67.7916512 23.3310199,69.9518976 24.8696287,71.4854577 C26.0065753,72.6178138 27.5161782,73.2411685 29.1223957,73.2411685 C30.5128477,73.2411685 31.8152038,72.7495781 32.8817381,71.8895636 C32.8816304,71.9010634 32.8782877,71.9115959 32.8782877,71.9230958 C32.8782877,75.2281654 35.576595,77.9167588 38.8925455,77.9167588 C39.9061361,77.9167588 40.8471578,77.6418379 41.6857421,77.1986112 L43.2367513,78.743886 C44.3460938,79.8495883 45.8142904,80.4591862 47.3722005,80.4617656 C47.375651,80.4617656 47.3773763,80.4617656 47.3808268,80.4617656 C48.9352864,80.4617656 50.4000325,79.8564667 51.5024739,78.7576428 C52.5945638,77.6708562 53.2018554,76.2332711 53.2173827,74.7036877 L54.4233397,75.9056876 C56.6627277,78.139447 60.2115885,78.3311822 62.5079101,76.3493441 C63.7828776,75.2436418 64.5247396,73.6710684 64.5523438,72.0142345 L64.8697917,72.3315006 C67.1385091,74.5910539 70.7132487,74.792247 73.0130208,72.7906336 C74.2897135,71.6789127 75.0229492,70.0702277 75.0229492,68.3772822 C75.0229492,68.356647 75.0229492,68.3368717 75.0229492,68.3162364 C76.9966471,69.6721403 79.5948893,69.8097082 81.5651367,68.5569804 C83.2679688,67.4770722 84.2841471,65.6319422 84.2841471,63.6122729 C84.2686197,62.0517366 83.6596029,60.5935165 82.5692383,59.5067298 L81.4354187,58.3766306 C85.9140869,53.7624086 89.7550557,48.4037076 92.0184896,43.5729236 C93.6364603,40.1163143 94.3042439,36.3608171 94.0106262,32.5985491 C94.5947346,32.9838468 95.2783691,33.1925632 95.9952149,33.1925632 C96.9596354,33.1925632 97.8653973,32.8176906 98.546875,32.1384489 L104.059082,26.6434696 C105.466895,25.2411365 105.466895,22.9583686 104.059082,21.5560354 L84.0305338,1.59234889 C82.6693034,0.234725322 80.2884439,0.233005657 78.9254883,1.59234889 L73.4132813,7.08646831 Z M8.70221345,31.7412215 L3.1900064,26.2471021 C2.47229807,25.530889 2.47229807,24.3658606 3.1900064,23.6496475 L23.2185546,3.68510099 C23.5670572,3.33860183 24.0294271,3.14772621 24.5228514,3.14772621 C25.0145506,3.14772621 25.4769205,3.33860165 25.8254231,3.68510099 L31.3376301,9.18008024 C32.0553385,9.89629333 32.0553385,11.0613218 31.3376301,11.7775349 L11.3073567,31.7412215 C10.6103516,32.43422 9.39921875,32.43422 8.70221345,31.7412215 Z M15.3910482,52.0256136 C14.5888021,51.2259999 14.1471354,50.1624278 14.1471354,49.0317915 C14.1471354,47.9011551 14.5888021,46.8384426 15.3910482,46.0388291 L16.7091473,44.7241956 C17.5113935,43.9245819 18.5793297,43.4843645 19.7128257,43.4843645 C20.8463216,43.4843645 21.914258,43.9245819 22.716504,44.7241956 C24.372754,46.374151 24.372754,49.0601649 22.716504,50.7101204 L21.586782,51.8361354 C21.5503358,51.8705273 21.5064495,51.8938495 21.470866,51.9293162 L21.2806561,52.1187946 C19.6596659,53.6145232 16.9582316,53.5876544 15.3910482,52.0256136 Z M18.8467449,63.0198709 C18.0444987,62.2202572 17.6028321,61.157545 17.6028321,60.0269086 C17.6028321,58.8962722 18.0444987,57.8335598 18.8467449,57.0339463 L22.5191774,53.3744242 C22.5591818,53.336593 22.6066265,53.3097242 22.6457685,53.2706033 L22.8458986,53.0711299 C23.6331565,52.3439544 24.6436199,51.9344749 25.7236329,51.9344749 C26.857129,51.9344749 27.9233399,52.3746923 28.7255861,53.174306 C29.5278322,53.9739196 29.9694989,55.0366319 29.9694989,56.1672683 C29.9694989,57.2979047 29.5278322,58.3606171 28.7255861,59.1602306 L24.8541018,63.0198709 C23.2496093,64.6182383 20.451237,64.619958 18.8467449,63.0198709 Z M32.1260742,70.2404678 C30.5215821,71.839695 27.7232096,71.839695 26.1187175,70.2404678 C24.4641928,68.5896526 24.4641928,65.9044986 26.1187175,64.2536833 L29.1413737,61.2426652 C29.9436199,60.4430516 31.0098308,60.0028342 32.1433269,60.0028342 C33.2785482,60.0028342 34.3447593,60.4430516 35.1470053,61.2426652 C36.8032553,62.8926206 36.8032553,65.5786345 35.1470053,67.2294497 L34.9089194,67.4667544 C34.7365012,67.6199062 34.5751894,67.7806887 34.4215333,67.9525411 L32.1260742,70.2404678 Z M34.6449545,71.9230956 C34.6449545,70.883383 35.0373434,69.9423324 35.6635051,69.2046243 L36.1650168,68.7047584 C36.9050457,68.0806513 37.8490866,67.6894426 38.8925457,67.6894426 C41.233724,67.6894426 43.1384115,69.5887399 43.1384115,71.9230958 C43.1384115,74.2574517 41.233724,76.1558892 38.8925457,76.1558892 C36.549642,76.1558892 34.6449545,74.2574515 34.6449545,71.9230956 Z M80.6162434,67.0712467 C79.0290038,68.0789318 76.8258463,67.7711235 75.3869792,66.336118 L73.3080404,64.264001 C73.2807597,64.2368098 73.245284,64.2256323 73.2155232,64.2027403 L64.4333008,55.4501954 C64.0882487,55.1062755 63.5292643,55.1062755 63.1842124,55.4501954 C62.8391604,55.7941152 62.8391603,56.3512654 63.1842124,56.6951851 L72.0710287,65.5519808 C72.0863404,65.5672422 72.10672,65.572401 72.1227865,65.5862652 C72.850523,66.3466504 73.2562827,67.3310135 73.2562827,68.3772822 C73.2562827,69.5792821 72.7576824,70.6755266 71.8501955,71.4648226 C70.2508792,72.8568381 67.7302737,72.6926164 66.1188805,71.0865107 L62.8374351,67.8149732 C62.7615236,67.7393107 62.6722414,67.6869705 62.5801556,67.6446254 C62.5370241,67.5403747 62.4739443,67.4423575 62.3888673,67.3575599 L56.2659181,61.2564219 C55.920866,60.912502 55.3618816,60.912502 55.0168297,61.2564219 C54.6717778,61.6003417 54.6717776,62.1574919 55.0168297,62.5014116 L61.1397789,68.6025496 C61.2156904,68.678212 61.3049726,68.7305523 61.3970584,68.7728973 C61.4401899,68.877148 61.5032697,68.9751652 61.5883467,69.0599629 L61.5952476,69.0668412 C62.3526369,69.8260442 62.7753258,70.8440469 62.7856773,71.9282543 C62.7856773,73.1190766 62.2750002,74.2170408 61.3485353,75.0200936 C59.7526694,76.4026513 57.2579428,76.2418689 55.6724285,74.6606974 L51.502474,70.5052859 L48.3452474,67.3575595 C48.0001954,67.0136397 47.4412109,67.0136397 47.096159,67.3575595 C46.7511071,67.7014793 46.7511069,68.2586296 47.096159,68.6025492 L50.2533856,71.7502756 C51.0263023,72.5197962 51.4507164,73.5472567 51.4507164,74.6435012 C51.4507164,75.7251291 51.0263023,76.7431318 50.2533856,77.5117926 C49.4821943,78.2795937 48.4970705,78.6862788 47.3756513,78.7008955 C46.2870121,78.6991758 45.2622072,78.2727152 44.4858401,77.4988956 L43.1417544,76.1597578 C44.2307172,75.0743684 44.9050784,73.5758452 44.9050784,71.9230953 C44.9050784,68.6180257 42.2084963,65.9285725 38.8925459,65.9285725 C38.535956,65.9285725 38.1909039,65.9739268 37.8511356,66.0335754 C38.5009119,63.9701638 38.0335819,61.6297894 36.3960941,59.9976748 C35.0567528,58.6617612 33.1307153,58.1348115 31.3083012,58.374803 C31.5841271,57.6806223 31.7361657,56.9363584 31.7361657,56.1672676 C31.7361657,54.5663207 31.1116215,53.0608116 29.9746749,51.9293154 C28.6921595,50.6496111 26.8721174,50.1197597 25.1196843,50.2859159 C26.1812585,48.0594648 25.811945,45.3194984 23.9655928,43.4792048 C21.6916996,41.2144927 17.7339521,41.2144927 15.460059,43.4792048 L15.0523585,43.88589 L15.0304693,43.8403206 C13.3535161,40.256676 12.7686529,36.296439 13.3397142,32.3869303 C13.3482327,32.3277115 13.3333522,32.2726844 13.3301175,32.2151853 L32.3355862,13.2728329 C32.8282558,13.3826723 33.3149949,13.5308803 33.8202807,13.7430358 L50.3818102,19.6226679 L38.4871102,24.5481373 C38.261101,24.6444349 38.041993,24.7544892 37.9108731,24.8353103 C37.8901699,24.845628 37.7314461,24.9187109 37.7124682,24.9298882 C36.7601244,25.4560855 35.9682299,26.2324846 35.4230477,27.1748249 L32.6850594,31.902003 C31.8810881,33.288 31.6671557,34.9035633 32.0829435,36.4503428 C32.4987313,37.9971224 33.4942065,39.2894011 34.8847664,40.0898745 C37.7486988,41.7363907 41.4304044,40.7596584 43.0918302,37.9085629 L44.8912768,34.8210226 C45.0327481,34.5768394 45.257032,34.3833845 45.5192717,34.2767695 L51.8026701,31.7360617 L68.9414071,48.4144542 L81.3201506,60.7517186 C82.0809905,61.5109216 82.5071297,62.5332235 82.5174813,63.6208698 C82.5174813,65.0266431 81.8066732,66.3163425 80.6162434,67.0712467 Z M90.4174479,42.8283373 C88.2374735,47.482325 84.5232036,52.6577811 80.1861145,57.1314259 L70.1835938,47.1617272 L52.6238933,30.0732104 C52.3720053,29.8290272 51.9976237,29.7602433 51.675,29.8874936 L44.8550455,32.6457306 C44.2305013,32.8985117 43.699121,33.3576447 43.3626952,33.9371495 L41.5632485,37.0246899 C40.3917968,39.0383406 37.7918293,39.7296194 35.7680989,38.5645909 C34.7864256,37.9997026 34.0842447,37.0865954 33.7892252,35.9946499 C33.4959309,34.9018445 33.6477538,33.7617503 34.2136393,32.7824385 L36.9516276,28.0552604 C37.3380859,27.3889156 37.8970702,26.8403636 38.5078125,26.5007427 C38.5336913,26.4887056 38.6975912,26.4121833 38.72347,26.3975667 C38.8701171,26.3124466 39.0236654,26.2350645 39.173763,26.1705797 L71.6759439,12.7121367 C72.2366535,12.4754768 72.82831,12.3035168 73.4324747,12.1930327 L92.0148234,30.7144058 C92.01698,30.7343961 92.0097554,30.7529893 92.0133138,30.7730872 C92.7379232,34.8786303 92.1858399,39.0477985 90.4174479,42.8283373 Z M81.4771484,2.29996383 C81.9705729,2.29996383 82.4329426,2.49083928 82.7814452,2.83733861 L102.809993,22.8010253 C103.527702,23.5172384 103.527702,24.6822668 102.809993,25.3984799 L97.2977864,30.8934592 C96.6007813,31.5864577 95.3896484,31.5864577 94.6926431,30.8934592 L74.6623699,10.9289127 C73.9446615,10.2126996 73.9446615,9.04767112 74.6623699,8.33145803 L80.1745769,2.83733861 C80.5230795,2.49083945 80.9854492,2.29996383 81.4771484,2.29996383 Z" id="Shape"></path>
                </g>
            </g>
        </g>
    </g>
</svg>