<?xml version="1.0" encoding="UTF-8"?>
<svg width="80px" height="81px" viewBox="0 0 80 81" version="1.1" xmlns="http://www.w3.org/2000/svg" xmlns:xlink="http://www.w3.org/1999/xlink">
    <!-- Generator: Sketch 61.2 (89653) - https://sketch.com -->
    <title>icon / planning</title>
    <desc>Created with Sketch.</desc>
    <g id="Desktop-Prototype" stroke="none" stroke-width="1" fill="none" fill-rule="evenodd">
        <g id="A1-Landing-Page" transform="translate(-314.000000, -1400.000000)" fill="#0F2940" fill-rule="nonzero">
            <g id="section-/-introducing" transform="translate(314.000000, 1100.000000)">
                <g id="icon-/-planning" transform="translate(0.000000, 300.000000)">
                    <path d="M68.688,80.233 C69.468,80.233 70.187,79.876 70.71,79.176 L79.787,64.56 C79.886,64.402 79.937,64.219 79.937,64.033 L79.937,7.516 C79.937,3.586 76.742,0.39 72.814,0.39 L64.56,0.39 C60.632,0.39 57.437,3.586 57.437,7.516 L57.437,64.034 C57.437,64.221 57.489,64.403 57.587,64.561 L66.716,79.253 C67.188,79.876 67.906,80.233 68.688,80.233 Z M69.062,78.046 C68.939,78.209 68.774,78.234 68.687,78.234 C68.599,78.234 68.434,78.21 68.363,78.123 L66.368,74.911 L71.008,74.911 L69.062,78.046 Z M59.437,62.598 L59.437,17.525 L77.938,17.525 L77.938,62.597 L59.437,62.597 L59.437,62.598 Z M77.938,15.525 L59.437,15.525 L59.437,11.45 L77.938,11.45 L77.938,15.525 Z M77.41,64.598 L72.25,72.91 L65.126,72.91 L59.964,64.598 L77.41,64.598 Z M64.56,2.39 L72.815,2.39 C75.64,2.39 77.938,4.69 77.938,7.516 L77.938,9.451 L59.437,9.451 L59.437,7.516 C59.437,4.689 61.734,2.39 64.56,2.39 Z" id="Shape"></path>
                    <path d="M68.688,24.695 C64.756,24.695 62.634,32.056 62.634,38.983 C62.634,45.91 64.756,53.271 68.688,53.271 C72.62,53.271 74.741,45.91 74.741,38.983 C74.741,32.056 72.619,24.695 68.688,24.695 Z M68.688,51.271 C66.996,51.271 64.634,46.596 64.634,38.983 C64.634,31.37 66.995,26.695 68.688,26.695 C70.381,26.695 72.741,31.37 72.741,38.983 C72.741,46.596 70.38,51.271 68.688,51.271 Z" id="Shape"></path>
                    <path d="M0.594,79.387 C1.625,79.842 2.719,80.071 3.814,80.071 C4.79,80.071 5.767,79.89 6.704,79.526 C8.693,78.755 10.263,77.255 11.123,75.302 L20.31,54.47 L29.05,54.47 L29.05,55.779 C29.05,56.332 29.497,56.779 30.05,56.779 C30.603,56.779 31.05,56.332 31.05,55.779 L31.05,54.47 L40.177,54.47 L49.364,75.302 C50.224,77.254 51.794,78.754 53.782,79.526 C54.72,79.89 55.696,80.071 56.672,80.071 C57.768,80.071 58.86,79.842 59.893,79.387 C60.399,79.164 60.627,78.574 60.405,78.069 L49.996,54.47 L53.783,54.47 C54.336,54.47 54.783,54.023 54.783,53.47 C54.783,52.917 54.336,52.47 53.783,52.47 L49.169,52.47 C49.151,52.47 49.136,52.479 49.118,52.48 L39.415,30.478 C40.846,28.54 41.704,26.154 41.704,23.565 C41.704,17.426 36.937,12.391 30.914,11.94 L30.914,10.496 L33.156,10.496 C33.709,10.496 34.156,10.049 34.156,9.496 L34.156,4.069 C34.156,3.516 33.709,3.069 33.156,3.069 L30.914,3.069 L30.914,1.075 C30.914,0.522 30.467,0.075 29.914,0.075 C29.361,0.075 28.914,0.522 28.914,1.075 L28.914,3.069 L26.797,3.069 C26.244,3.069 25.797,3.516 25.797,4.069 L25.797,9.496 C25.797,10.049 26.244,10.496 26.797,10.496 L28.914,10.496 L28.914,11.952 C23.008,12.52 18.374,17.509 18.374,23.564 C18.374,26.306 19.331,28.825 20.919,30.82 L11.368,52.476 C11.356,52.476 11.346,52.469 11.334,52.469 L6.72,52.469 C6.167,52.469 5.72,52.916 5.72,53.469 C5.72,54.022 6.167,54.469 6.72,54.469 L10.489,54.469 L0.082,78.068 C-0.141,78.573 0.088,79.164 0.594,79.387 Z M27.797,5.069 L32.156,5.069 L32.156,8.496 L27.797,8.496 L27.797,5.069 Z M31.049,52.47 L31.049,51.162 C31.049,50.609 30.602,50.162 30.049,50.162 C29.496,50.162 29.049,50.609 29.049,51.162 L29.049,52.47 L21.191,52.47 L28.82,35.17 C29.221,35.212 29.627,35.235 30.039,35.235 C30.583,35.235 31.114,35.184 31.639,35.112 L39.294,52.47 L31.049,52.47 Z M54.505,77.661 C53.015,77.083 51.839,75.958 51.193,74.495 L33.627,34.664 C35.256,34.136 36.723,33.253 37.951,32.115 L58.137,77.885 C56.937,78.189 55.679,78.117 54.505,77.661 Z M30.039,13.896 C35.368,13.896 39.704,18.234 39.704,23.565 C39.704,28.897 35.368,33.235 30.039,33.235 C24.71,33.235 20.374,28.897 20.374,23.565 C20.374,18.233 24.71,13.896 30.039,13.896 Z M22.418,32.379 C23.677,33.47 25.169,34.295 26.811,34.77 L18.737,53.079 C18.737,53.08 18.736,53.08 18.736,53.081 L9.292,74.495 C8.646,75.958 7.471,77.083 5.98,77.661 C4.804,78.118 3.545,78.19 2.348,77.885 L22.418,32.379 Z" id="Shape"></path>
                </g>
            </g>
        </g>
    </g>
</svg>